<svg xmlns="http://www.w3.org/2000/svg" xmlns:xlink="http://www.w3.org/1999/xlink" width="500" zoomAndPan="magnify" viewBox="0 0 375 374.999991" height="500" preserveAspectRatio="xMidYMid meet" version="1.2"><defs><clipPath id="c853420a86"><path d="M 9.113281 58.738281 L 366.113281 58.738281 L 366.113281 143 L 9.113281 143 Z M 9.113281 58.738281 "/></clipPath><clipPath id="38a1c3d447"><path d="M 9.113281 231 L 366.113281 231 L 366.113281 315.988281 L 9.113281 315.988281 Z M 9.113281 231 "/></clipPath><clipPath id="5c4579539b"><path d="M 9.113281 142 L 366.113281 142 L 366.113281 232 L 9.113281 232 Z M 9.113281 142 "/></clipPath><clipPath id="32c9d660af"><path d="M 9.113281 68 L 183 68 L 183 307 L 9.113281 307 Z M 9.113281 68 "/></clipPath></defs><g id="d55a0f416e"><g clip-rule="nonzero" clip-path="url(#c853420a86)"><path style=" stroke:none;fill-rule:nonzero;fill:#141414;fill-opacity:1;" d="M 326.367188 58.738281 L 48.859375 58.738281 C 26.964844 58.738281 9.214844 76.457031 9.214844 98.3125 L 9.214844 142.839844 L 366.011719 142.839844 L 366.011719 98.3125 C 366.011719 76.457031 348.261719 58.738281 326.367188 58.738281 Z M 326.367188 58.738281 "/></g><g clip-rule="nonzero" clip-path="url(#38a1c3d447)"><path style=" stroke:none;fill-rule:nonzero;fill:#007a3d;fill-opacity:1;" d="M 9.214844 276.410156 C 9.214844 298.265625 26.964844 315.988281 48.859375 315.988281 L 326.367188 315.988281 C 348.261719 315.988281 366.011719 298.265625 366.011719 276.410156 L 366.011719 231.886719 L 9.214844 231.886719 Z M 9.214844 276.410156 "/></g><g clip-rule="nonzero" clip-path="url(#5c4579539b)"><path style=" stroke:none;fill-rule:nonzero;fill:#eeeeee;fill-opacity:1;" d="M 9.214844 142.839844 L 366.011719 142.839844 L 366.011719 231.886719 L 9.214844 231.886719 Z M 9.214844 142.839844 "/></g><g clip-rule="nonzero" clip-path="url(#32c9d660af)"><path style=" stroke:none;fill-rule:nonzero;fill:#ce1126;fill-opacity:1;" d="M 22.601562 68.671875 L 22.59375 68.671875 C 14.386719 75.921875 9.214844 86.519531 9.214844 98.3125 L 9.214844 276.410156 C 9.214844 288.214844 14.386719 298.8125 22.601562 306.0625 L 182.65625 187.363281 Z M 22.601562 68.671875 "/></g><path style=" stroke:none;fill-rule:nonzero;fill:#ffffff;fill-opacity:1;" d="M 74.894531 200.601562 L 85.359375 210.257812 L 84.320312 196.058594 L 98.414062 193.910156 L 86.648438 185.878906 L 93.753906 173.539062 L 80.128906 177.707031 L 74.894531 164.46875 L 69.660156 177.707031 L 56.035156 173.539062 L 63.128906 185.878906 L 51.375 193.910156 L 65.457031 196.058594 L 64.429688 210.257812 Z M 74.894531 200.601562 "/></g></svg>