<svg xmlns="http://www.w3.org/2000/svg" xmlns:xlink="http://www.w3.org/1999/xlink" width="500" zoomAndPan="magnify" viewBox="0 0 375 374.999991" height="500" preserveAspectRatio="xMidYMid meet" version="1.2"><defs><clipPath id="96fec64d44"><path d="M 9.113281 236 L 366.113281 236 L 366.113281 315.988281 L 9.113281 315.988281 Z M 9.113281 236 "/></clipPath><clipPath id="01b05877ca"><path d="M 9.113281 147 L 366.113281 147 L 366.113281 237 L 9.113281 237 Z M 9.113281 147 "/></clipPath><clipPath id="baf52068a4"><path d="M 9.113281 58.738281 L 366.113281 58.738281 L 366.113281 148 L 9.113281 148 Z M 9.113281 58.738281 "/></clipPath></defs><g id="1cbe1ad7e9"><g clip-rule="nonzero" clip-path="url(#96fec64d44)"><path style=" stroke:none;fill-rule:nonzero;fill:#ffcd05;fill-opacity:1;" d="M 9.214844 276.410156 C 9.214844 298.265625 26.964844 315.988281 48.859375 315.988281 L 326.367188 315.988281 C 348.261719 315.988281 366.011719 298.265625 366.011719 276.410156 L 366.011719 236.832031 L 9.214844 236.832031 Z M 9.214844 276.410156 "/></g><g clip-rule="nonzero" clip-path="url(#01b05877ca)"><path style=" stroke:none;fill-rule:nonzero;fill:#ed1f24;fill-opacity:1;" d="M 9.214844 147.785156 L 366.011719 147.785156 L 366.011719 236.832031 L 9.214844 236.832031 Z M 9.214844 147.785156 "/></g><g clip-rule="nonzero" clip-path="url(#baf52068a4)"><path style=" stroke:none;fill-rule:nonzero;fill:#141414;fill-opacity:1;" d="M 326.367188 58.738281 L 48.859375 58.738281 C 26.964844 58.738281 9.214844 76.457031 9.214844 98.3125 L 9.214844 147.785156 L 366.011719 147.785156 L 366.011719 98.3125 C 366.011719 76.457031 348.261719 58.738281 326.367188 58.738281 Z M 326.367188 58.738281 "/></g></g></svg>