<svg xmlns="http://www.w3.org/2000/svg" xmlns:xlink="http://www.w3.org/1999/xlink" width="500" zoomAndPan="magnify" viewBox="0 0 375 374.999991" height="500" preserveAspectRatio="xMidYMid meet" version="1.2"><defs><clipPath id="4439322f4f"><path d="M 9.113281 58.738281 L 366.113281 58.738281 L 366.113281 315.988281 L 9.113281 315.988281 Z M 9.113281 58.738281 "/></clipPath><clipPath id="0edef8c284"><path d="M 9.113281 78 L 366.113281 78 L 366.113281 297 L 9.113281 297 Z M 9.113281 78 "/></clipPath><clipPath id="56c01ddee4"><path d="M 9.113281 58.738281 L 188 58.738281 L 188 198 L 9.113281 198 Z M 9.113281 58.738281 "/></clipPath></defs><g id="b01ab4c111"><g clip-rule="nonzero" clip-path="url(#4439322f4f)"><path style=" stroke:none;fill-rule:nonzero;fill:#b22334;fill-opacity:1;" d="M 360.511719 78.527344 C 353.644531 66.742188 341.007812 58.738281 326.367188 58.738281 L 187.613281 58.738281 L 187.613281 78.527344 Z M 9.214844 256.621094 L 366.011719 256.621094 L 366.011719 276.410156 L 9.214844 276.410156 Z M 187.613281 177.46875 L 366.011719 177.46875 L 366.011719 197.257812 L 187.613281 197.257812 Z M 187.613281 137.890625 L 366.011719 137.890625 L 366.011719 157.679688 L 187.613281 157.679688 Z M 9.214844 217.042969 L 366.011719 217.042969 L 366.011719 236.832031 L 9.214844 236.832031 Z M 48.859375 315.988281 L 326.367188 315.988281 C 341.007812 315.988281 353.644531 307.984375 360.511719 296.199219 L 14.714844 296.199219 C 21.582031 307.984375 34.21875 315.988281 48.859375 315.988281 Z M 187.613281 98.3125 L 366.011719 98.3125 L 366.011719 118.101562 L 187.613281 118.101562 Z M 187.613281 98.3125 "/></g><g clip-rule="nonzero" clip-path="url(#0edef8c284)"><path style=" stroke:none;fill-rule:nonzero;fill:#eeeeee;fill-opacity:1;" d="M 9.886719 283.128906 C 10.054688 284.046875 10.242188 284.96875 10.472656 285.867188 C 10.730469 286.867188 11.046875 287.828125 11.382812 288.796875 C 12.265625 291.359375 13.335938 293.832031 14.683594 296.148438 L 14.714844 296.199219 L 360.511719 296.199219 L 360.53125 296.160156 C 361.871094 293.855469 362.941406 291.378906 363.824219 288.828125 C 364.160156 287.847656 364.488281 286.867188 364.746094 285.847656 C 364.972656 284.957031 365.160156 284.046875 365.328125 283.128906 C 365.734375 280.953125 366.011719 278.714844 366.011719 276.410156 L 9.214844 276.410156 C 9.214844 278.714844 9.492188 280.941406 9.886719 283.128906 Z M 9.214844 236.832031 L 366.011719 236.832031 L 366.011719 256.621094 L 9.214844 256.621094 Z M 9.214844 197.257812 L 9.214844 217.042969 L 366.011719 217.042969 L 366.011719 197.257812 Z M 187.613281 157.679688 L 366.011719 157.679688 L 366.011719 177.46875 L 187.613281 177.46875 Z M 187.613281 118.101562 L 366.011719 118.101562 L 366.011719 137.890625 L 187.613281 137.890625 Z M 9.214844 98.3125 C 9.214844 96.007812 9.511719 93.792969 9.886719 91.597656 C 9.492188 93.78125 9.214844 96.007812 9.214844 98.3125 Z M 14.714844 78.527344 L 14.683594 78.574219 Z M 10.480469 88.855469 C 10.730469 87.847656 11.078125 86.886719 11.394531 85.917969 C 11.058594 86.886719 10.738281 87.855469 10.480469 88.855469 Z M 187.613281 98.3125 L 366.011719 98.3125 C 366.011719 96.007812 365.734375 93.773438 365.328125 91.585938 C 365.160156 90.675781 364.980469 89.765625 364.746094 88.875 C 364.476562 87.855469 364.160156 86.867188 363.8125 85.886719 C 362.929688 83.335938 361.859375 80.871094 360.523438 78.566406 C 360.53125 78.554688 360.523438 78.535156 360.511719 78.527344 L 187.613281 78.527344 Z M 187.613281 98.3125 "/></g><g clip-rule="nonzero" clip-path="url(#56c01ddee4)"><path style=" stroke:none;fill-rule:nonzero;fill:#3c3b6e;fill-opacity:1;" d="M 187.613281 58.738281 L 48.859375 58.738281 C 26.964844 58.738281 9.214844 76.457031 9.214844 98.3125 L 9.214844 197.257812 L 187.613281 197.257812 Z M 187.613281 58.738281 "/></g><path style=" stroke:none;fill-rule:nonzero;fill:#ffffff;fill-opacity:1;" d="M 29.046875 85.707031 L 35.171875 90.152344 L 32.832031 97.324219 L 38.945312 92.890625 L 45.070312 97.324219 L 42.734375 90.152344 L 48.859375 85.707031 L 41.285156 85.707031 L 38.945312 78.527344 L 36.617188 85.707031 Z M 48.867188 105.496094 L 54.992188 109.941406 L 52.652344 117.113281 L 58.769531 112.679688 L 64.894531 117.113281 L 62.554688 109.941406 L 68.679688 105.496094 L 61.109375 105.496094 L 58.769531 98.3125 L 56.441406 105.496094 Z M 88.511719 105.496094 L 94.636719 109.941406 L 92.296875 117.113281 L 98.414062 112.679688 L 104.539062 117.113281 L 102.199219 109.941406 L 108.324219 105.496094 L 100.753906 105.496094 L 98.414062 98.3125 L 96.085938 105.496094 Z M 128.15625 105.496094 L 134.28125 109.941406 L 131.941406 117.113281 L 138.058594 112.679688 L 144.183594 117.113281 L 141.84375 109.941406 L 147.96875 105.496094 L 140.398438 105.496094 L 138.058594 98.3125 L 135.726562 105.496094 Z M 48.867188 145.074219 L 54.992188 149.515625 L 52.652344 156.691406 L 58.769531 152.257812 L 64.894531 156.691406 L 62.554688 149.515625 L 68.679688 145.074219 L 61.109375 145.074219 L 58.769531 137.890625 L 56.441406 145.074219 Z M 88.511719 145.074219 L 94.636719 149.515625 L 92.296875 156.691406 L 98.414062 152.257812 L 104.539062 156.691406 L 102.199219 149.515625 L 108.324219 145.074219 L 100.753906 145.074219 L 98.414062 137.890625 L 96.085938 145.074219 Z M 128.15625 145.074219 L 134.28125 149.515625 L 131.941406 156.691406 L 138.058594 152.257812 L 144.183594 156.691406 L 141.84375 149.515625 L 147.96875 145.074219 L 140.398438 145.074219 L 138.058594 137.890625 L 135.726562 145.074219 Z M 68.691406 85.707031 L 74.816406 90.152344 L 72.476562 97.324219 L 78.589844 92.890625 L 84.714844 97.324219 L 82.378906 90.152344 L 88.503906 85.707031 L 80.929688 85.707031 L 78.589844 78.527344 L 76.261719 85.707031 Z M 108.335938 85.707031 L 114.460938 90.152344 L 112.121094 97.324219 L 118.234375 92.890625 L 124.359375 97.324219 L 122.019531 90.152344 L 128.144531 85.707031 L 120.574219 85.707031 L 118.234375 78.527344 L 115.90625 85.707031 Z M 147.980469 85.707031 L 154.105469 90.152344 L 151.765625 97.324219 L 157.878906 92.890625 L 164.003906 97.324219 L 161.664062 90.152344 L 167.789062 85.707031 L 160.21875 85.707031 L 157.878906 78.527344 L 155.550781 85.707031 Z M 29.046875 125.285156 L 35.171875 129.726562 L 32.832031 136.902344 L 38.945312 132.46875 L 45.070312 136.902344 L 42.734375 129.726562 L 48.859375 125.285156 L 41.285156 125.285156 L 38.945312 118.101562 L 36.617188 125.285156 Z M 72.476562 136.902344 L 78.589844 132.46875 L 84.714844 136.902344 L 82.378906 129.726562 L 88.503906 125.285156 L 80.929688 125.285156 L 78.589844 118.101562 L 76.261719 125.285156 L 68.691406 125.285156 L 74.816406 129.726562 Z M 108.335938 125.285156 L 114.460938 129.726562 L 112.121094 136.902344 L 118.234375 132.46875 L 124.359375 136.902344 L 122.019531 129.726562 L 128.144531 125.285156 L 120.574219 125.285156 L 118.234375 118.101562 L 115.90625 125.285156 Z M 147.980469 125.285156 L 154.105469 129.726562 L 151.765625 136.902344 L 157.878906 132.46875 L 164.003906 136.902344 L 161.664062 129.726562 L 167.789062 125.285156 L 160.21875 125.285156 L 157.878906 118.101562 L 155.550781 125.285156 Z M 29.046875 164.863281 L 35.171875 169.304688 L 32.832031 176.476562 L 38.945312 172.046875 L 45.070312 176.476562 L 42.734375 169.304688 L 48.859375 164.863281 L 41.285156 164.863281 L 38.945312 157.679688 L 36.617188 164.863281 Z M 72.476562 176.476562 L 78.589844 172.046875 L 84.714844 176.476562 L 82.378906 169.304688 L 88.503906 164.863281 L 80.929688 164.863281 L 78.589844 157.679688 L 76.261719 164.863281 L 68.691406 164.863281 L 74.816406 169.304688 Z M 108.335938 164.863281 L 114.460938 169.304688 L 112.121094 176.476562 L 118.234375 172.046875 L 124.359375 176.476562 L 122.019531 169.304688 L 128.144531 164.863281 L 120.574219 164.863281 L 118.234375 157.679688 L 115.90625 164.863281 Z M 147.980469 164.863281 L 154.105469 169.304688 L 151.765625 176.476562 L 157.878906 172.046875 L 164.003906 176.476562 L 161.664062 169.304688 L 167.789062 164.863281 L 160.21875 164.863281 L 157.878906 157.679688 L 155.550781 164.863281 Z M 147.980469 164.863281 "/></g></svg>