<svg xmlns="http://www.w3.org/2000/svg" xmlns:xlink="http://www.w3.org/1999/xlink" width="500" zoomAndPan="magnify" viewBox="0 0 375 374.999991" height="500" preserveAspectRatio="xMidYMid meet" version="1.2"><defs><clipPath id="f46bba6d7b"><path d="M 9.113281 58.738281 L 366.113281 58.738281 L 366.113281 315.988281 L 9.113281 315.988281 Z M 9.113281 58.738281 "/></clipPath></defs><g id="5065418065"><g clip-rule="nonzero" clip-path="url(#f46bba6d7b)"><path style=" stroke:none;fill-rule:nonzero;fill:#eeeeee;fill-opacity:1;" d="M 366.011719 276.410156 C 366.011719 298.265625 348.261719 315.988281 326.367188 315.988281 L 48.859375 315.988281 C 26.964844 315.988281 9.214844 298.265625 9.214844 276.410156 L 9.214844 98.3125 C 9.214844 76.457031 26.964844 58.738281 48.859375 58.738281 L 326.367188 58.738281 C 348.261719 58.738281 366.011719 76.457031 366.011719 98.3125 Z M 366.011719 276.410156 "/></g><path style=" stroke:none;fill-rule:nonzero;fill:#ed1b2f;fill-opacity:1;" d="M 256.992188 187.363281 C 256.992188 188.496094 256.964844 189.628906 256.90625 190.761719 C 256.851562 191.894531 256.769531 193.023438 256.65625 194.152344 C 256.546875 195.277344 256.40625 196.402344 256.238281 197.523438 C 256.074219 198.644531 255.878906 199.761719 255.65625 200.875 C 255.4375 201.984375 255.1875 203.089844 254.910156 204.191406 C 254.636719 205.289062 254.332031 206.382812 254.003906 207.46875 C 253.671875 208.550781 253.316406 209.628906 252.933594 210.695312 C 252.550781 211.761719 252.144531 212.820312 251.710938 213.867188 C 251.273438 214.914062 250.816406 215.949219 250.328125 216.972656 C 249.84375 218 249.335938 219.011719 248.796875 220.011719 C 248.261719 221.011719 247.703125 221.996094 247.121094 222.96875 C 246.535156 223.941406 245.929688 224.898438 245.296875 225.839844 C 244.667969 226.78125 244.015625 227.710938 243.335938 228.621094 C 242.660156 229.53125 241.964844 230.421875 241.242188 231.300781 C 240.523438 232.175781 239.78125 233.035156 239.019531 233.875 C 238.257812 234.714844 237.472656 235.535156 236.671875 236.335938 C 235.867188 237.136719 235.046875 237.917969 234.203125 238.679688 C 233.363281 239.441406 232.503906 240.179688 231.625 240.902344 C 230.75 241.621094 229.851562 242.316406 228.941406 242.992188 C 228.03125 243.667969 227.101562 244.320312 226.15625 244.949219 C 225.214844 245.578125 224.253906 246.183594 223.28125 246.769531 C 222.304688 247.351562 221.320312 247.910156 220.316406 248.445312 C 219.316406 248.976562 218.300781 249.488281 217.277344 249.972656 C 216.25 250.457031 215.210938 250.914062 214.164062 251.351562 C 213.113281 251.785156 212.054688 252.191406 210.984375 252.574219 C 209.917969 252.953125 208.839844 253.308594 207.753906 253.640625 C 206.664062 253.96875 205.570312 254.269531 204.46875 254.546875 C 203.367188 254.820312 202.261719 255.070312 201.148438 255.289062 C 200.035156 255.511719 198.917969 255.707031 197.792969 255.871094 C 196.667969 256.039062 195.542969 256.175781 194.414062 256.289062 C 193.285156 256.398438 192.152344 256.484375 191.015625 256.539062 C 189.882812 256.59375 188.75 256.621094 187.613281 256.621094 C 186.476562 256.621094 185.34375 256.59375 184.207031 256.539062 C 183.074219 256.484375 181.941406 256.398438 180.8125 256.289062 C 179.683594 256.175781 178.554688 256.039062 177.433594 255.871094 C 176.308594 255.707031 175.191406 255.511719 174.078125 255.289062 C 172.964844 255.070312 171.855469 254.820312 170.753906 254.546875 C 169.652344 254.269531 168.558594 253.96875 167.472656 253.640625 C 166.386719 253.308594 165.308594 252.953125 164.242188 252.574219 C 163.171875 252.191406 162.113281 251.785156 161.0625 251.347656 C 160.015625 250.914062 158.976562 250.457031 157.949219 249.972656 C 156.925781 249.488281 155.910156 248.976562 154.910156 248.445312 C 153.90625 247.910156 152.917969 247.351562 151.945312 246.769531 C 150.972656 246.183594 150.011719 245.578125 149.070312 244.949219 C 148.125 244.320312 147.195312 243.667969 146.285156 242.992188 C 145.371094 242.316406 144.476562 241.621094 143.601562 240.902344 C 142.722656 240.179688 141.863281 239.441406 141.023438 238.679688 C 140.179688 237.917969 139.359375 237.136719 138.554688 236.335938 C 137.753906 235.535156 136.96875 234.714844 136.207031 233.875 C 135.445312 233.035156 134.703125 232.175781 133.984375 231.300781 C 133.261719 230.421875 132.566406 229.53125 131.886719 228.621094 C 131.210938 227.710938 130.558594 226.78125 129.925781 225.839844 C 129.296875 224.898438 128.691406 223.941406 128.105469 222.96875 C 127.523438 221.996094 126.960938 221.011719 126.425781 220.011719 C 125.890625 219.011719 125.382812 218 124.894531 216.972656 C 124.410156 215.949219 123.949219 214.914062 123.515625 213.867188 C 123.082031 212.820312 122.671875 211.761719 122.289062 210.695312 C 121.910156 209.628906 121.550781 208.550781 121.222656 207.46875 C 120.894531 206.382812 120.589844 205.289062 120.316406 204.191406 C 120.039062 203.089844 119.789062 201.984375 119.570312 200.875 C 119.347656 199.761719 119.152344 198.644531 118.984375 197.523438 C 118.820312 196.402344 118.679688 195.277344 118.570312 194.152344 C 118.457031 193.023438 118.375 191.894531 118.320312 190.761719 C 118.261719 189.628906 118.234375 188.496094 118.234375 187.363281 C 118.234375 186.230469 118.261719 185.097656 118.320312 183.964844 C 118.375 182.832031 118.457031 181.703125 118.570312 180.574219 C 118.679688 179.445312 118.820312 178.320312 118.984375 177.199219 C 119.152344 176.078125 119.347656 174.960938 119.570312 173.851562 C 119.789062 172.738281 120.039062 171.632812 120.316406 170.535156 C 120.589844 169.433594 120.894531 168.339844 121.222656 167.257812 C 121.550781 166.171875 121.910156 165.097656 122.289062 164.027344 C 122.671875 162.960938 123.082031 161.90625 123.515625 160.859375 C 123.949219 159.808594 124.410156 158.773438 124.894531 157.75 C 125.382812 156.726562 125.890625 155.714844 126.425781 154.714844 C 126.960938 153.714844 127.523438 152.726562 128.105469 151.753906 C 128.691406 150.785156 129.296875 149.824219 129.925781 148.882812 C 130.558594 147.941406 131.210938 147.015625 131.886719 146.105469 C 132.566406 145.195312 133.261719 144.300781 133.984375 143.425781 C 134.703125 142.546875 135.445312 141.691406 136.207031 140.851562 C 136.96875 140.011719 137.753906 139.191406 138.554688 138.386719 C 139.359375 137.585938 140.179688 136.804688 141.023438 136.042969 C 141.863281 135.28125 142.722656 134.542969 143.601562 133.824219 C 144.476562 133.105469 145.371094 132.40625 146.285156 131.730469 C 147.195312 131.058594 148.125 130.40625 149.070312 129.773438 C 150.011719 129.144531 150.972656 128.539062 151.945312 127.957031 C 152.917969 127.375 153.90625 126.816406 154.910156 126.28125 C 155.910156 125.746094 156.925781 125.238281 157.949219 124.753906 C 158.976562 124.265625 160.015625 123.808594 161.0625 123.375 C 162.113281 122.941406 163.171875 122.53125 164.242188 122.152344 C 165.308594 121.769531 166.386719 121.414062 167.472656 121.085938 C 168.558594 120.753906 169.65625 120.453125 170.753906 120.179688 C 171.855469 119.902344 172.964844 119.65625 174.078125 119.433594 C 175.191406 119.210938 176.308594 119.019531 177.433594 118.851562 C 178.554688 118.6875 179.683594 118.546875 180.8125 118.4375 C 181.941406 118.324219 183.074219 118.242188 184.207031 118.1875 C 185.34375 118.128906 186.476562 118.101562 187.613281 118.101562 C 188.75 118.101562 189.882812 118.128906 191.015625 118.1875 C 192.152344 118.242188 193.285156 118.324219 194.414062 118.4375 C 195.542969 118.546875 196.667969 118.6875 197.792969 118.851562 C 198.917969 119.019531 200.035156 119.210938 201.148438 119.433594 C 202.261719 119.65625 203.367188 119.902344 204.46875 120.179688 C 205.570312 120.453125 206.664062 120.753906 207.753906 121.085938 C 208.839844 121.414062 209.917969 121.769531 210.984375 122.152344 C 212.054688 122.53125 213.113281 122.941406 214.164062 123.375 C 215.210938 123.808594 216.25 124.265625 217.277344 124.753906 C 218.300781 125.238281 219.316406 125.746094 220.316406 126.28125 C 221.320312 126.816406 222.304688 127.375 223.28125 127.957031 C 224.253906 128.539062 225.214844 129.144531 226.15625 129.773438 C 227.101562 130.40625 228.03125 131.058594 228.941406 131.730469 C 229.851562 132.40625 230.75 133.105469 231.625 133.824219 C 232.503906 134.542969 233.363281 135.28125 234.203125 136.042969 C 235.046875 136.804688 235.867188 137.585938 236.671875 138.386719 C 237.472656 139.191406 238.257812 140.011719 239.019531 140.851562 C 239.78125 141.691406 240.523438 142.546875 241.242188 143.425781 C 241.964844 144.300781 242.660156 145.195312 243.335938 146.105469 C 244.015625 147.015625 244.667969 147.941406 245.296875 148.882812 C 245.929688 149.824219 246.535156 150.785156 247.121094 151.753906 C 247.703125 152.726562 248.261719 153.714844 248.796875 154.714844 C 249.335938 155.714844 249.84375 156.726562 250.328125 157.75 C 250.816406 158.773438 251.273438 159.808594 251.710938 160.859375 C 252.144531 161.90625 252.554688 162.960938 252.933594 164.027344 C 253.316406 165.097656 253.675781 166.171875 254.003906 167.257812 C 254.332031 168.339844 254.636719 169.433594 254.910156 170.535156 C 255.1875 171.632812 255.4375 172.738281 255.65625 173.851562 C 255.878906 174.960938 256.074219 176.078125 256.238281 177.199219 C 256.40625 178.320312 256.546875 179.445312 256.65625 180.574219 C 256.769531 181.703125 256.851562 182.832031 256.90625 183.964844 C 256.964844 185.097656 256.992188 186.230469 256.992188 187.363281 Z M 256.992188 187.363281 "/></g></svg>