<svg xmlns="http://www.w3.org/2000/svg" xmlns:xlink="http://www.w3.org/1999/xlink" width="500" zoomAndPan="magnify" viewBox="0 0 375 374.999991" height="500" preserveAspectRatio="xMidYMid meet" version="1.2"><defs><clipPath id="557aa883e7"><path d="M 9.113281 236 L 366.113281 236 L 366.113281 315.988281 L 9.113281 315.988281 Z M 9.113281 236 "/></clipPath><clipPath id="1b308c35a9"><path d="M 9.113281 137 L 366.113281 137 L 366.113281 237 L 9.113281 237 Z M 9.113281 137 "/></clipPath><clipPath id="088df9c445"><path d="M 9.113281 58.738281 L 366.113281 58.738281 L 366.113281 138 L 9.113281 138 Z M 9.113281 58.738281 "/></clipPath></defs><g id="9449329a3e"><g clip-rule="nonzero" clip-path="url(#557aa883e7)"><path style=" stroke:none;fill-rule:nonzero;fill:#ce2028;fill-opacity:1;" d="M 366.011719 276.410156 C 366.011719 298.265625 348.261719 315.988281 326.367188 315.988281 L 48.859375 315.988281 C 26.964844 315.988281 9.214844 298.265625 9.214844 276.410156 L 9.214844 236.832031 L 366.011719 236.832031 Z M 366.011719 276.410156 "/></g><g clip-rule="nonzero" clip-path="url(#1b308c35a9)"><path style=" stroke:none;fill-rule:nonzero;fill:#22408c;fill-opacity:1;" d="M 9.214844 137.890625 L 366.011719 137.890625 L 366.011719 236.832031 L 9.214844 236.832031 Z M 9.214844 137.890625 "/></g><g clip-rule="nonzero" clip-path="url(#088df9c445)"><path style=" stroke:none;fill-rule:nonzero;fill:#eeeeee;fill-opacity:1;" d="M 326.367188 58.738281 L 48.859375 58.738281 C 26.964844 58.738281 9.214844 76.457031 9.214844 98.3125 L 9.214844 137.890625 L 366.011719 137.890625 L 366.011719 98.3125 C 366.011719 76.457031 348.261719 58.738281 326.367188 58.738281 Z M 326.367188 58.738281 "/></g></g></svg>