<svg xmlns="http://www.w3.org/2000/svg" xmlns:xlink="http://www.w3.org/1999/xlink" width="500" zoomAndPan="magnify" viewBox="0 0 375 374.999991" height="500" preserveAspectRatio="xMidYMid meet" version="1.2"><defs><clipPath id="b3dd76ea3d"><path d="M 9.113281 58.738281 L 366.113281 58.738281 L 366.113281 315.988281 L 9.113281 315.988281 Z M 9.113281 58.738281 "/></clipPath></defs><g id="4e2d45f0c2"><g clip-rule="nonzero" clip-path="url(#b3dd76ea3d)"><path style=" stroke:none;fill-rule:nonzero;fill:#de2910;fill-opacity:1;" d="M 366.011719 276.410156 C 366.011719 298.265625 348.261719 315.988281 326.367188 315.988281 L 48.859375 315.988281 C 26.964844 315.988281 9.214844 298.265625 9.214844 276.410156 L 9.214844 98.3125 C 9.214844 76.457031 26.964844 58.738281 48.859375 58.738281 L 326.367188 58.738281 C 348.261719 58.738281 366.011719 76.457031 366.011719 98.3125 Z M 366.011719 276.410156 "/></g><path style=" stroke:none;fill-rule:nonzero;fill:#ffde02;fill-opacity:1;" d="M 119.582031 98.085938 L 126.878906 101.609375 L 132.714844 96.007812 L 131.617188 104.023438 L 138.75 107.84375 L 130.78125 109.265625 L 129.355469 117.222656 L 125.53125 110.097656 L 117.503906 111.195312 L 123.113281 105.367188 Z M 165.820312 127.183594 L 162.289062 134.457031 L 167.898438 140.296875 L 159.882812 139.1875 L 156.054688 146.320312 L 154.628906 138.355469 L 146.652344 136.929688 L 153.796875 133.113281 L 152.6875 125.109375 L 158.535156 130.707031 Z M 156.332031 164.574219 L 158.988281 172.214844 L 167.085938 172.382812 L 160.636719 177.261719 L 162.984375 185.007812 L 156.332031 180.386719 L 149.683594 185.007812 L 152.023438 177.261719 L 145.570312 172.382812 L 153.667969 172.214844 Z M 119.582031 197.027344 L 126.878906 200.550781 L 132.714844 194.949219 L 131.617188 202.964844 L 138.75 206.785156 L 130.78125 208.210938 L 129.355469 216.164062 L 125.53125 209.039062 L 117.503906 210.136719 L 123.113281 204.3125 Z M 78.589844 117.617188 L 87.796875 144.046875 L 115.808594 144.617188 L 93.476562 161.519531 L 101.59375 188.292969 L 78.589844 172.3125 L 55.585938 188.292969 L 63.703125 161.519531 L 41.375 144.617188 L 69.382812 144.046875 Z M 78.589844 117.617188 "/></g></svg>